<mxfile host="app.diagrams.net" modified="2022-03-18T07:43:50.061Z" agent="5.0 (Windows NT 10.0; Win64; x64) AppleWebKit/537.36 (KHTML, like Gecko) Chrome/99.0.4844.51 Safari/537.36 Edg/99.0.1150.39" etag="T4Qb1D8Je4QSoNeGM0Ge" version="17.1.0" type="github">
  <diagram id="5tEhLmFEiWvRgSKT24Jh" name="Page-1">
    <mxGraphModel dx="989" dy="544" grid="1" gridSize="4" guides="1" tooltips="1" connect="1" arrows="1" fold="1" page="1" pageScale="1" pageWidth="4681" pageHeight="3300" background="none" math="0" shadow="0">
      <root>
        <mxCell id="0" />
        <mxCell id="1" parent="0" />
        <mxCell id="yyOtxf7_ZLcBcy0vw7WP-1" value="&lt;b&gt;&lt;font style=&quot;font-size: 13px&quot; color=&quot;#009900&quot;&gt;DESS&lt;/font&gt;&lt;/b&gt;" style="rounded=1;whiteSpace=wrap;html=1;verticalAlign=top;align=left;fontSize=12;spacingTop=5;spacingLeft=44;" vertex="1" parent="1">
          <mxGeometry x="967" y="804" width="206" height="912" as="geometry" />
        </mxCell>
        <mxCell id="yyOtxf7_ZLcBcy0vw7WP-9" value="健康监控" style="rounded=1;whiteSpace=wrap;html=1;fontSize=12;align=right;spacingRight=6;" vertex="1" parent="1">
          <mxGeometry x="1029" y="1115" width="98" height="44" as="geometry" />
        </mxCell>
        <mxCell id="yyOtxf7_ZLcBcy0vw7WP-4" value="" style="sketch=0;pointerEvents=1;shadow=0;dashed=0;html=1;strokeColor=none;fillColor=#DF8C42;labelPosition=center;verticalLabelPosition=bottom;verticalAlign=top;align=center;outlineConnect=0;shape=mxgraph.veeam2.microsoft_scom;fontSize=12;" vertex="1" parent="1">
          <mxGeometry x="1035" y="1126" width="24" height="23" as="geometry" />
        </mxCell>
        <mxCell id="yyOtxf7_ZLcBcy0vw7WP-10" value="数据服务" style="rounded=1;whiteSpace=wrap;html=1;fontSize=12;align=right;spacingRight=6;" vertex="1" parent="1">
          <mxGeometry x="1029" y="1372" width="98" height="44" as="geometry" />
        </mxCell>
        <mxCell id="yyOtxf7_ZLcBcy0vw7WP-12" value="调度&amp;amp;控制" style="rounded=1;whiteSpace=wrap;html=1;fontSize=12;align=right;spacingRight=6;" vertex="1" parent="1">
          <mxGeometry x="1029" y="1237" width="98" height="44" as="geometry" />
        </mxCell>
        <mxCell id="yyOtxf7_ZLcBcy0vw7WP-6" value="" style="sketch=0;pointerEvents=1;shadow=0;dashed=0;html=1;strokeColor=#006EAF;fillColor=#1ba1e2;aspect=fixed;labelPosition=center;verticalLabelPosition=bottom;verticalAlign=top;align=center;outlineConnect=0;shape=mxgraph.vvd.nsx_dashboard;fontSize=12;fontColor=#ffffff;" vertex="1" parent="1">
          <mxGeometry x="1033" y="1376.79" width="37" height="34.42" as="geometry" />
        </mxCell>
        <mxCell id="yyOtxf7_ZLcBcy0vw7WP-16" value="" style="shape=mxgraph.signs.healthcare.oncology;html=1;pointerEvents=1;fillColor=#008a00;strokeColor=#005700;verticalLabelPosition=bottom;verticalAlign=top;align=center;sketch=0;fontSize=12;fontColor=#ffffff;" vertex="1" parent="1">
          <mxGeometry x="983" y="812" width="24" height="22" as="geometry" />
        </mxCell>
        <mxCell id="yyOtxf7_ZLcBcy0vw7WP-17" value="" style="shape=mxgraph.signs.safety.radiation;html=1;pointerEvents=1;fillColor=#a20025;strokeColor=#6F0000;verticalLabelPosition=bottom;verticalAlign=top;align=center;sketch=0;fontSize=12;fontColor=#ffffff;" vertex="1" parent="1">
          <mxGeometry x="1033" y="1246" width="28" height="26" as="geometry" />
        </mxCell>
        <mxCell id="yyOtxf7_ZLcBcy0vw7WP-18" value="&lt;font color=&quot;#009900&quot;&gt;&lt;span style=&quot;font-size: 13px&quot;&gt;&lt;b&gt;XX域AAA平台&lt;/b&gt;&lt;/span&gt;&lt;/font&gt;" style="rounded=1;whiteSpace=wrap;html=1;verticalAlign=top;align=left;fontSize=12;spacingTop=5;spacingLeft=22;" vertex="1" parent="1">
          <mxGeometry x="608" y="852" width="200" height="180" as="geometry" />
        </mxCell>
        <mxCell id="yyOtxf7_ZLcBcy0vw7WP-19" value="AAA Server" style="rounded=1;whiteSpace=wrap;html=1;fontSize=12;align=right;spacingRight=6;" vertex="1" parent="1">
          <mxGeometry x="656" y="903" width="108" height="44" as="geometry" />
        </mxCell>
        <mxCell id="yyOtxf7_ZLcBcy0vw7WP-28" value="" style="shape=mxgraph.signs.travel.cashier;html=1;pointerEvents=1;fillColor=#fa6800;strokeColor=#C73500;verticalLabelPosition=bottom;verticalAlign=top;align=center;sketch=0;fontSize=13;fontColor=#000000;" vertex="1" parent="1">
          <mxGeometry x="663.5" y="913" width="21.5" height="23" as="geometry" />
        </mxCell>
        <mxCell id="yyOtxf7_ZLcBcy0vw7WP-29" value="AAA Server" style="rounded=1;whiteSpace=wrap;html=1;fontSize=12;align=right;spacingRight=6;" vertex="1" parent="1">
          <mxGeometry x="660" y="907" width="108" height="44" as="geometry" />
        </mxCell>
        <mxCell id="yyOtxf7_ZLcBcy0vw7WP-30" value="" style="shape=mxgraph.signs.travel.cashier;html=1;pointerEvents=1;fillColor=#fa6800;strokeColor=#C73500;verticalLabelPosition=bottom;verticalAlign=top;align=center;sketch=0;fontSize=13;fontColor=#000000;" vertex="1" parent="1">
          <mxGeometry x="667.5" y="917" width="21.5" height="23" as="geometry" />
        </mxCell>
        <mxCell id="yyOtxf7_ZLcBcy0vw7WP-31" value="AAA Server" style="rounded=1;whiteSpace=wrap;html=1;fontSize=12;align=right;spacingRight=6;" vertex="1" parent="1">
          <mxGeometry x="664" y="911" width="108" height="44" as="geometry" />
        </mxCell>
        <mxCell id="yyOtxf7_ZLcBcy0vw7WP-32" value="" style="shape=mxgraph.signs.travel.cashier;html=1;pointerEvents=1;fillColor=#fa6800;strokeColor=#C73500;verticalLabelPosition=bottom;verticalAlign=top;align=center;sketch=0;fontSize=13;fontColor=#000000;" vertex="1" parent="1">
          <mxGeometry x="671.5" y="921" width="21.5" height="23" as="geometry" />
        </mxCell>
        <mxCell id="yyOtxf7_ZLcBcy0vw7WP-33" value="AAA GW" style="rounded=1;whiteSpace=wrap;html=1;fontSize=12;align=right;spacingRight=6;" vertex="1" parent="1">
          <mxGeometry x="663.5" y="972" width="108" height="44" as="geometry" />
        </mxCell>
        <mxCell id="yyOtxf7_ZLcBcy0vw7WP-42" value="&lt;font color=&quot;#009900&quot;&gt;&lt;span style=&quot;font-size: 13px&quot;&gt;&lt;b&gt;YY域AAA平台&lt;/b&gt;&lt;/span&gt;&lt;/font&gt;" style="rounded=1;whiteSpace=wrap;html=1;verticalAlign=top;align=left;fontSize=12;spacingTop=5;spacingLeft=22;" vertex="1" parent="1">
          <mxGeometry x="608" y="1135" width="200" height="180" as="geometry" />
        </mxCell>
        <mxCell id="yyOtxf7_ZLcBcy0vw7WP-43" value="AAA Server" style="rounded=1;whiteSpace=wrap;html=1;fontSize=12;align=right;spacingRight=6;" vertex="1" parent="1">
          <mxGeometry x="656" y="1186" width="108" height="44" as="geometry" />
        </mxCell>
        <mxCell id="yyOtxf7_ZLcBcy0vw7WP-44" value="" style="shape=mxgraph.signs.travel.cashier;html=1;pointerEvents=1;fillColor=#fa6800;strokeColor=#C73500;verticalLabelPosition=bottom;verticalAlign=top;align=center;sketch=0;fontSize=13;fontColor=#000000;" vertex="1" parent="1">
          <mxGeometry x="663.5" y="1196" width="21.5" height="23" as="geometry" />
        </mxCell>
        <mxCell id="yyOtxf7_ZLcBcy0vw7WP-45" value="AAA Server" style="rounded=1;whiteSpace=wrap;html=1;fontSize=12;align=right;spacingRight=6;" vertex="1" parent="1">
          <mxGeometry x="660" y="1190" width="108" height="44" as="geometry" />
        </mxCell>
        <mxCell id="yyOtxf7_ZLcBcy0vw7WP-46" value="" style="shape=mxgraph.signs.travel.cashier;html=1;pointerEvents=1;fillColor=#fa6800;strokeColor=#C73500;verticalLabelPosition=bottom;verticalAlign=top;align=center;sketch=0;fontSize=13;fontColor=#000000;" vertex="1" parent="1">
          <mxGeometry x="667.5" y="1200" width="21.5" height="23" as="geometry" />
        </mxCell>
        <mxCell id="yyOtxf7_ZLcBcy0vw7WP-47" value="AAA Server" style="rounded=1;whiteSpace=wrap;html=1;fontSize=12;align=right;spacingRight=6;" vertex="1" parent="1">
          <mxGeometry x="664" y="1194" width="108" height="44" as="geometry" />
        </mxCell>
        <mxCell id="yyOtxf7_ZLcBcy0vw7WP-48" value="" style="shape=mxgraph.signs.travel.cashier;html=1;pointerEvents=1;fillColor=#fa6800;strokeColor=#C73500;verticalLabelPosition=bottom;verticalAlign=top;align=center;sketch=0;fontSize=13;fontColor=#000000;" vertex="1" parent="1">
          <mxGeometry x="671.5" y="1204" width="21.5" height="23" as="geometry" />
        </mxCell>
        <mxCell id="yyOtxf7_ZLcBcy0vw7WP-49" value="AAA GW" style="rounded=1;whiteSpace=wrap;html=1;fontSize=12;align=right;spacingRight=6;" vertex="1" parent="1">
          <mxGeometry x="663.5" y="1255" width="108" height="44" as="geometry" />
        </mxCell>
        <mxCell id="yyOtxf7_ZLcBcy0vw7WP-50" value="&lt;font color=&quot;#009900&quot;&gt;&lt;span style=&quot;font-size: 13px&quot;&gt;&lt;b&gt;ZZ域AAA平台&lt;/b&gt;&lt;/span&gt;&lt;/font&gt;" style="rounded=1;whiteSpace=wrap;html=1;verticalAlign=top;align=left;fontSize=12;spacingTop=5;spacingLeft=22;" vertex="1" parent="1">
          <mxGeometry x="612" y="1432" width="200" height="180" as="geometry" />
        </mxCell>
        <mxCell id="yyOtxf7_ZLcBcy0vw7WP-51" value="AAA Server" style="rounded=1;whiteSpace=wrap;html=1;fontSize=12;align=right;spacingRight=6;" vertex="1" parent="1">
          <mxGeometry x="660" y="1483" width="108" height="44" as="geometry" />
        </mxCell>
        <mxCell id="yyOtxf7_ZLcBcy0vw7WP-52" value="" style="shape=mxgraph.signs.travel.cashier;html=1;pointerEvents=1;fillColor=#fa6800;strokeColor=#C73500;verticalLabelPosition=bottom;verticalAlign=top;align=center;sketch=0;fontSize=13;fontColor=#000000;" vertex="1" parent="1">
          <mxGeometry x="667.5" y="1493" width="21.5" height="23" as="geometry" />
        </mxCell>
        <mxCell id="yyOtxf7_ZLcBcy0vw7WP-53" value="AAA Server" style="rounded=1;whiteSpace=wrap;html=1;fontSize=12;align=right;spacingRight=6;" vertex="1" parent="1">
          <mxGeometry x="664" y="1487" width="108" height="44" as="geometry" />
        </mxCell>
        <mxCell id="yyOtxf7_ZLcBcy0vw7WP-54" value="" style="shape=mxgraph.signs.travel.cashier;html=1;pointerEvents=1;fillColor=#fa6800;strokeColor=#C73500;verticalLabelPosition=bottom;verticalAlign=top;align=center;sketch=0;fontSize=13;fontColor=#000000;" vertex="1" parent="1">
          <mxGeometry x="671.5" y="1497" width="21.5" height="23" as="geometry" />
        </mxCell>
        <mxCell id="yyOtxf7_ZLcBcy0vw7WP-55" value="AAA Server" style="rounded=1;whiteSpace=wrap;html=1;fontSize=12;align=right;spacingRight=6;" vertex="1" parent="1">
          <mxGeometry x="668" y="1491" width="108" height="44" as="geometry" />
        </mxCell>
        <mxCell id="yyOtxf7_ZLcBcy0vw7WP-56" value="" style="shape=mxgraph.signs.travel.cashier;html=1;pointerEvents=1;fillColor=#fa6800;strokeColor=#C73500;verticalLabelPosition=bottom;verticalAlign=top;align=center;sketch=0;fontSize=13;fontColor=#000000;" vertex="1" parent="1">
          <mxGeometry x="675.5" y="1501" width="21.5" height="23" as="geometry" />
        </mxCell>
        <mxCell id="yyOtxf7_ZLcBcy0vw7WP-57" value="AAA GW" style="rounded=1;whiteSpace=wrap;html=1;fontSize=12;align=right;spacingRight=6;" vertex="1" parent="1">
          <mxGeometry x="667.5" y="1552" width="108" height="44" as="geometry" />
        </mxCell>
        <mxCell id="yyOtxf7_ZLcBcy0vw7WP-58" value="" style="endArrow=classic;dashed=1;html=1;dashPattern=1 3;strokeWidth=2;rounded=0;fontSize=13;fontColor=#009900;entryX=0;entryY=0.5;entryDx=0;entryDy=0;exitX=1;exitY=0.5;exitDx=0;exitDy=0;startArrow=none;startFill=1;endFill=1;fillColor=#60a917;strokeColor=#2D7600;" edge="1" parent="1" source="yyOtxf7_ZLcBcy0vw7WP-82" target="yyOtxf7_ZLcBcy0vw7WP-9">
          <mxGeometry width="50" height="50" relative="1" as="geometry">
            <mxPoint x="901" y="1156" as="sourcePoint" />
            <mxPoint x="951" y="1106" as="targetPoint" />
          </mxGeometry>
        </mxCell>
        <mxCell id="yyOtxf7_ZLcBcy0vw7WP-116" style="edgeStyle=orthogonalEdgeStyle;rounded=1;orthogonalLoop=1;jettySize=auto;html=1;exitX=1;exitY=0.5;exitDx=0;exitDy=0;entryX=0;entryY=0.5;entryDx=0;entryDy=0;fontSize=13;fontColor=#009900;startArrow=classic;startFill=1;endArrow=classic;endFill=1;endSize=6;strokeWidth=2;" edge="1" parent="1" source="yyOtxf7_ZLcBcy0vw7WP-59" target="yyOtxf7_ZLcBcy0vw7WP-18">
          <mxGeometry relative="1" as="geometry" />
        </mxCell>
        <mxCell id="yyOtxf7_ZLcBcy0vw7WP-59" value="&lt;font color=&quot;#009900&quot;&gt;&lt;span style=&quot;font-size: 13px&quot;&gt;&lt;b&gt;XX域EPG集群&lt;/b&gt;&lt;/span&gt;&lt;/font&gt;" style="rounded=1;whiteSpace=wrap;html=1;verticalAlign=top;align=left;fontSize=12;spacingTop=5;spacingLeft=22;" vertex="1" parent="1">
          <mxGeometry x="308" y="975" width="220" height="116" as="geometry" />
        </mxCell>
        <mxCell id="yyOtxf7_ZLcBcy0vw7WP-65" value="EPG Server" style="rounded=1;whiteSpace=wrap;html=1;fontSize=12;align=left;spacingRight=6;" vertex="1" parent="1">
          <mxGeometry x="371.5" y="1011" width="108" height="44" as="geometry" />
        </mxCell>
        <mxCell id="yyOtxf7_ZLcBcy0vw7WP-66" value="" style="sketch=0;pointerEvents=1;shadow=0;dashed=0;html=1;strokeColor=none;fillColor=#DF8C42;labelPosition=center;verticalLabelPosition=bottom;verticalAlign=top;align=center;outlineConnect=0;shape=mxgraph.veeam2.agent;fontSize=12;" vertex="1" parent="1">
          <mxGeometry x="444" y="1022.5" width="21" height="21" as="geometry" />
        </mxCell>
        <mxCell id="yyOtxf7_ZLcBcy0vw7WP-63" value="EPG Server" style="rounded=1;whiteSpace=wrap;html=1;fontSize=12;align=left;spacingRight=6;" vertex="1" parent="1">
          <mxGeometry x="384" y="1018" width="108" height="44" as="geometry" />
        </mxCell>
        <mxCell id="yyOtxf7_ZLcBcy0vw7WP-64" value="" style="sketch=0;pointerEvents=1;shadow=0;dashed=0;html=1;strokeColor=none;fillColor=#DF8C42;labelPosition=center;verticalLabelPosition=bottom;verticalAlign=top;align=center;outlineConnect=0;shape=mxgraph.veeam2.agent;fontSize=12;" vertex="1" parent="1">
          <mxGeometry x="456.5" y="1029.5" width="21" height="21" as="geometry" />
        </mxCell>
        <mxCell id="yyOtxf7_ZLcBcy0vw7WP-60" value="EPG Server" style="rounded=1;whiteSpace=wrap;html=1;fontSize=12;align=left;spacingRight=6;" vertex="1" parent="1">
          <mxGeometry x="396" y="1029.5" width="108" height="44" as="geometry" />
        </mxCell>
        <mxCell id="yyOtxf7_ZLcBcy0vw7WP-14" value="" style="sketch=0;pointerEvents=1;shadow=0;dashed=0;html=1;strokeColor=none;fillColor=#DF8C42;labelPosition=center;verticalLabelPosition=bottom;verticalAlign=top;align=center;outlineConnect=0;shape=mxgraph.veeam2.agent;fontSize=12;" vertex="1" parent="1">
          <mxGeometry x="468.5" y="1041" width="21" height="21" as="geometry" />
        </mxCell>
        <mxCell id="yyOtxf7_ZLcBcy0vw7WP-117" style="edgeStyle=orthogonalEdgeStyle;rounded=1;orthogonalLoop=1;jettySize=auto;html=1;exitX=1;exitY=0.5;exitDx=0;exitDy=0;entryX=0;entryY=0.5;entryDx=0;entryDy=0;fontSize=13;fontColor=#009900;startArrow=classic;startFill=1;endArrow=classic;endFill=1;endSize=6;strokeWidth=2;" edge="1" parent="1" source="yyOtxf7_ZLcBcy0vw7WP-67" target="yyOtxf7_ZLcBcy0vw7WP-42">
          <mxGeometry relative="1" as="geometry" />
        </mxCell>
        <mxCell id="yyOtxf7_ZLcBcy0vw7WP-67" value="&lt;font color=&quot;#009900&quot;&gt;&lt;span style=&quot;font-size: 13px&quot;&gt;&lt;b&gt;YY域EPG集群&lt;/b&gt;&lt;/span&gt;&lt;/font&gt;" style="rounded=1;whiteSpace=wrap;html=1;verticalAlign=top;align=left;fontSize=12;spacingTop=5;spacingLeft=22;" vertex="1" parent="1">
          <mxGeometry x="312" y="1260" width="220" height="116" as="geometry" />
        </mxCell>
        <mxCell id="yyOtxf7_ZLcBcy0vw7WP-68" value="EPG Server" style="rounded=1;whiteSpace=wrap;html=1;fontSize=12;align=left;spacingRight=6;" vertex="1" parent="1">
          <mxGeometry x="375.5" y="1296" width="108" height="44" as="geometry" />
        </mxCell>
        <mxCell id="yyOtxf7_ZLcBcy0vw7WP-69" value="" style="sketch=0;pointerEvents=1;shadow=0;dashed=0;html=1;strokeColor=none;fillColor=#DF8C42;labelPosition=center;verticalLabelPosition=bottom;verticalAlign=top;align=center;outlineConnect=0;shape=mxgraph.veeam2.agent;fontSize=12;" vertex="1" parent="1">
          <mxGeometry x="448" y="1307.5" width="21" height="21" as="geometry" />
        </mxCell>
        <mxCell id="yyOtxf7_ZLcBcy0vw7WP-70" value="EPG Server" style="rounded=1;whiteSpace=wrap;html=1;fontSize=12;align=left;spacingRight=6;" vertex="1" parent="1">
          <mxGeometry x="388" y="1303" width="108" height="44" as="geometry" />
        </mxCell>
        <mxCell id="yyOtxf7_ZLcBcy0vw7WP-71" value="" style="sketch=0;pointerEvents=1;shadow=0;dashed=0;html=1;strokeColor=none;fillColor=#DF8C42;labelPosition=center;verticalLabelPosition=bottom;verticalAlign=top;align=center;outlineConnect=0;shape=mxgraph.veeam2.agent;fontSize=12;" vertex="1" parent="1">
          <mxGeometry x="460.5" y="1314.5" width="21" height="21" as="geometry" />
        </mxCell>
        <mxCell id="yyOtxf7_ZLcBcy0vw7WP-72" value="EPG Server" style="rounded=1;whiteSpace=wrap;html=1;fontSize=12;align=left;spacingRight=6;" vertex="1" parent="1">
          <mxGeometry x="400" y="1314.5" width="108" height="44" as="geometry" />
        </mxCell>
        <mxCell id="yyOtxf7_ZLcBcy0vw7WP-73" value="" style="sketch=0;pointerEvents=1;shadow=0;dashed=0;html=1;strokeColor=none;fillColor=#DF8C42;labelPosition=center;verticalLabelPosition=bottom;verticalAlign=top;align=center;outlineConnect=0;shape=mxgraph.veeam2.agent;fontSize=12;" vertex="1" parent="1">
          <mxGeometry x="472.5" y="1326" width="21" height="21" as="geometry" />
        </mxCell>
        <mxCell id="yyOtxf7_ZLcBcy0vw7WP-118" style="edgeStyle=orthogonalEdgeStyle;rounded=1;orthogonalLoop=1;jettySize=auto;html=1;exitX=1;exitY=0.5;exitDx=0;exitDy=0;entryX=0.003;entryY=0.466;entryDx=0;entryDy=0;entryPerimeter=0;fontSize=13;fontColor=#009900;startArrow=classic;startFill=1;endArrow=classic;endFill=1;endSize=6;strokeWidth=2;" edge="1" parent="1" source="yyOtxf7_ZLcBcy0vw7WP-74" target="yyOtxf7_ZLcBcy0vw7WP-50">
          <mxGeometry relative="1" as="geometry" />
        </mxCell>
        <mxCell id="yyOtxf7_ZLcBcy0vw7WP-74" value="&lt;font color=&quot;#009900&quot;&gt;&lt;span style=&quot;font-size: 13px&quot;&gt;&lt;b&gt;ZZ域EPG集群&lt;/b&gt;&lt;/span&gt;&lt;/font&gt;" style="rounded=1;whiteSpace=wrap;html=1;verticalAlign=top;align=left;fontSize=12;spacingTop=5;spacingLeft=22;" vertex="1" parent="1">
          <mxGeometry x="315.5" y="1559" width="220" height="116" as="geometry" />
        </mxCell>
        <mxCell id="yyOtxf7_ZLcBcy0vw7WP-75" value="EPG Server" style="rounded=1;whiteSpace=wrap;html=1;fontSize=12;align=left;spacingRight=6;" vertex="1" parent="1">
          <mxGeometry x="379" y="1595" width="108" height="44" as="geometry" />
        </mxCell>
        <mxCell id="yyOtxf7_ZLcBcy0vw7WP-76" value="" style="sketch=0;pointerEvents=1;shadow=0;dashed=0;html=1;strokeColor=none;fillColor=#DF8C42;labelPosition=center;verticalLabelPosition=bottom;verticalAlign=top;align=center;outlineConnect=0;shape=mxgraph.veeam2.agent;fontSize=12;" vertex="1" parent="1">
          <mxGeometry x="451.5" y="1606.5" width="21" height="21" as="geometry" />
        </mxCell>
        <mxCell id="yyOtxf7_ZLcBcy0vw7WP-77" value="EPG Server" style="rounded=1;whiteSpace=wrap;html=1;fontSize=12;align=left;spacingRight=6;" vertex="1" parent="1">
          <mxGeometry x="391.5" y="1602" width="108" height="44" as="geometry" />
        </mxCell>
        <mxCell id="yyOtxf7_ZLcBcy0vw7WP-78" value="" style="sketch=0;pointerEvents=1;shadow=0;dashed=0;html=1;strokeColor=none;fillColor=#DF8C42;labelPosition=center;verticalLabelPosition=bottom;verticalAlign=top;align=center;outlineConnect=0;shape=mxgraph.veeam2.agent;fontSize=12;" vertex="1" parent="1">
          <mxGeometry x="464" y="1613.5" width="21" height="21" as="geometry" />
        </mxCell>
        <mxCell id="yyOtxf7_ZLcBcy0vw7WP-79" value="EPG Server" style="rounded=1;whiteSpace=wrap;html=1;fontSize=12;align=left;spacingRight=6;" vertex="1" parent="1">
          <mxGeometry x="403.5" y="1613.5" width="108" height="44" as="geometry" />
        </mxCell>
        <mxCell id="yyOtxf7_ZLcBcy0vw7WP-80" value="" style="sketch=0;pointerEvents=1;shadow=0;dashed=0;html=1;strokeColor=none;fillColor=#DF8C42;labelPosition=center;verticalLabelPosition=bottom;verticalAlign=top;align=center;outlineConnect=0;shape=mxgraph.veeam2.agent;fontSize=12;" vertex="1" parent="1">
          <mxGeometry x="476" y="1625" width="21" height="21" as="geometry" />
        </mxCell>
        <mxCell id="yyOtxf7_ZLcBcy0vw7WP-83" value="" style="endArrow=none;dashed=1;html=1;dashPattern=1 3;strokeWidth=2;rounded=0;fontSize=13;fontColor=#009900;entryX=0.07;entryY=0.07;entryDx=0;entryDy=0;exitX=1;exitY=0.5;exitDx=0;exitDy=0;startArrow=classic;startFill=1;endFill=1;fillColor=#60a917;strokeColor=#2D7600;entryPerimeter=0;" edge="1" parent="1" source="yyOtxf7_ZLcBcy0vw7WP-31" target="yyOtxf7_ZLcBcy0vw7WP-82">
          <mxGeometry width="50" height="50" relative="1" as="geometry">
            <mxPoint x="772" y="933" as="sourcePoint" />
            <mxPoint x="980" y="1094" as="targetPoint" />
            <Array as="points">
              <mxPoint x="860" y="1028" />
            </Array>
          </mxGeometry>
        </mxCell>
        <mxCell id="yyOtxf7_ZLcBcy0vw7WP-108" value="心跳监测" style="edgeLabel;html=1;align=center;verticalAlign=middle;resizable=0;points=[];fontSize=13;fontColor=#009900;" vertex="1" connectable="0" parent="yyOtxf7_ZLcBcy0vw7WP-83">
          <mxGeometry x="-0.2364" y="-3" relative="1" as="geometry">
            <mxPoint as="offset" />
          </mxGeometry>
        </mxCell>
        <mxCell id="yyOtxf7_ZLcBcy0vw7WP-85" value="" style="endArrow=none;dashed=1;html=1;dashPattern=1 3;strokeWidth=2;rounded=0;fontSize=13;fontColor=#009900;exitX=1;exitY=0.5;exitDx=0;exitDy=0;startArrow=classic;startFill=1;endFill=1;fillColor=#60a917;strokeColor=#2D7600;entryX=0.07;entryY=0.07;entryDx=0;entryDy=0;entryPerimeter=0;" edge="1" parent="1" target="yyOtxf7_ZLcBcy0vw7WP-82">
          <mxGeometry width="50" height="50" relative="1" as="geometry">
            <mxPoint x="771.5" y="997" as="sourcePoint" />
            <mxPoint x="832" y="1116" as="targetPoint" />
          </mxGeometry>
        </mxCell>
        <mxCell id="yyOtxf7_ZLcBcy0vw7WP-109" value="心跳监测" style="edgeLabel;html=1;align=center;verticalAlign=middle;resizable=0;points=[];fontSize=13;fontColor=#009900;" vertex="1" connectable="0" parent="yyOtxf7_ZLcBcy0vw7WP-85">
          <mxGeometry x="-0.1086" relative="1" as="geometry">
            <mxPoint as="offset" />
          </mxGeometry>
        </mxCell>
        <mxCell id="yyOtxf7_ZLcBcy0vw7WP-87" value="" style="endArrow=none;dashed=1;html=1;dashPattern=1 3;strokeWidth=2;rounded=0;fontSize=13;fontColor=#009900;exitX=1;exitY=0.5;exitDx=0;exitDy=0;startArrow=classic;startFill=1;endFill=1;fillColor=#60a917;strokeColor=#2D7600;entryX=0.055;entryY=0.5;entryDx=0;entryDy=0;entryPerimeter=0;" edge="1" parent="1" source="yyOtxf7_ZLcBcy0vw7WP-47" target="yyOtxf7_ZLcBcy0vw7WP-82">
          <mxGeometry width="50" height="50" relative="1" as="geometry">
            <mxPoint x="775.5" y="1001" as="sourcePoint" />
            <mxPoint x="922.4000000000001" y="1134.19" as="targetPoint" />
          </mxGeometry>
        </mxCell>
        <mxCell id="yyOtxf7_ZLcBcy0vw7WP-110" value="心跳监测" style="edgeLabel;html=1;align=center;verticalAlign=middle;resizable=0;points=[];fontSize=13;fontColor=#009900;" vertex="1" connectable="0" parent="yyOtxf7_ZLcBcy0vw7WP-87">
          <mxGeometry x="-0.1744" y="2" relative="1" as="geometry">
            <mxPoint as="offset" />
          </mxGeometry>
        </mxCell>
        <mxCell id="yyOtxf7_ZLcBcy0vw7WP-88" value="" style="endArrow=none;dashed=1;html=1;dashPattern=1 3;strokeWidth=2;rounded=0;fontSize=13;fontColor=#009900;exitX=1;exitY=0.5;exitDx=0;exitDy=0;startArrow=classic;startFill=1;endFill=1;fillColor=#60a917;strokeColor=#2D7600;entryX=0.055;entryY=0.5;entryDx=0;entryDy=0;entryPerimeter=0;" edge="1" parent="1" source="yyOtxf7_ZLcBcy0vw7WP-49" target="yyOtxf7_ZLcBcy0vw7WP-82">
          <mxGeometry width="50" height="50" relative="1" as="geometry">
            <mxPoint x="779.5" y="1005" as="sourcePoint" />
            <mxPoint x="926.4000000000001" y="1138.19" as="targetPoint" />
          </mxGeometry>
        </mxCell>
        <mxCell id="yyOtxf7_ZLcBcy0vw7WP-111" value="心跳监测" style="edgeLabel;html=1;align=center;verticalAlign=middle;resizable=0;points=[];fontSize=13;fontColor=#009900;" vertex="1" connectable="0" parent="yyOtxf7_ZLcBcy0vw7WP-88">
          <mxGeometry x="-0.1254" relative="1" as="geometry">
            <mxPoint x="-1" as="offset" />
          </mxGeometry>
        </mxCell>
        <mxCell id="yyOtxf7_ZLcBcy0vw7WP-89" value="" style="endArrow=none;dashed=1;html=1;dashPattern=1 3;strokeWidth=2;rounded=0;fontSize=13;fontColor=#009900;exitX=1;exitY=0.5;exitDx=0;exitDy=0;startArrow=none;startFill=1;endFill=1;fillColor=#60a917;strokeColor=#2D7600;" edge="1" parent="1" source="yyOtxf7_ZLcBcy0vw7WP-82">
          <mxGeometry width="50" height="50" relative="1" as="geometry">
            <mxPoint x="832.5" y="1009" as="sourcePoint" />
            <mxPoint x="969" y="1140" as="targetPoint" />
          </mxGeometry>
        </mxCell>
        <mxCell id="yyOtxf7_ZLcBcy0vw7WP-90" value="" style="endArrow=none;dashed=1;html=1;dashPattern=1 3;strokeWidth=2;rounded=0;fontSize=13;fontColor=#009900;startArrow=classic;startFill=1;endFill=1;fillColor=#60a917;strokeColor=#2D7600;exitX=1;exitY=0.5;exitDx=0;exitDy=0;entryX=0.495;entryY=1;entryDx=0;entryDy=0;entryPerimeter=0;" edge="1" parent="1" source="yyOtxf7_ZLcBcy0vw7WP-57" target="yyOtxf7_ZLcBcy0vw7WP-82">
          <mxGeometry width="50" height="50" relative="1" as="geometry">
            <mxPoint x="840" y="1408" as="sourcePoint" />
            <mxPoint x="924" y="1146" as="targetPoint" />
          </mxGeometry>
        </mxCell>
        <mxCell id="yyOtxf7_ZLcBcy0vw7WP-114" value="心跳监测" style="edgeLabel;html=1;align=center;verticalAlign=middle;resizable=0;points=[];fontSize=13;fontColor=#009900;" vertex="1" connectable="0" parent="yyOtxf7_ZLcBcy0vw7WP-90">
          <mxGeometry x="0.0799" y="-1" relative="1" as="geometry">
            <mxPoint y="-1" as="offset" />
          </mxGeometry>
        </mxCell>
        <mxCell id="yyOtxf7_ZLcBcy0vw7WP-82" value="" style="shape=mxgraph.signs.healthcare.cardiology;html=1;pointerEvents=1;fillColor=#60a917;strokeColor=#2D7600;verticalLabelPosition=bottom;verticalAlign=top;align=center;sketch=0;fontSize=13;fontColor=#ffffff;" vertex="1" parent="1">
          <mxGeometry x="947" y="1122.5" width="40" height="30" as="geometry" />
        </mxCell>
        <mxCell id="yyOtxf7_ZLcBcy0vw7WP-91" value="" style="endArrow=none;dashed=1;html=1;dashPattern=1 3;strokeWidth=2;rounded=0;fontSize=13;fontColor=#009900;exitX=1;exitY=0.5;exitDx=0;exitDy=0;startArrow=classic;startFill=1;endFill=1;fillColor=#60a917;strokeColor=#2D7600;entryX=0.495;entryY=1;entryDx=0;entryDy=0;entryPerimeter=0;" edge="1" parent="1" source="yyOtxf7_ZLcBcy0vw7WP-55" target="yyOtxf7_ZLcBcy0vw7WP-82">
          <mxGeometry width="50" height="50" relative="1" as="geometry">
            <mxPoint x="776" y="1513" as="sourcePoint" />
            <mxPoint x="920" y="1140" as="targetPoint" />
          </mxGeometry>
        </mxCell>
        <mxCell id="yyOtxf7_ZLcBcy0vw7WP-112" value="心跳监测" style="edgeLabel;html=1;align=center;verticalAlign=middle;resizable=0;points=[];fontSize=13;fontColor=#009900;" vertex="1" connectable="0" parent="yyOtxf7_ZLcBcy0vw7WP-91">
          <mxGeometry x="-0.3197" y="4" relative="1" as="geometry">
            <mxPoint as="offset" />
          </mxGeometry>
        </mxCell>
        <mxCell id="yyOtxf7_ZLcBcy0vw7WP-92" value="策略规则" style="rounded=1;whiteSpace=wrap;html=1;fontSize=12;align=right;spacingRight=6;" vertex="1" parent="1">
          <mxGeometry x="1029" y="978.5" width="98" height="44" as="geometry" />
        </mxCell>
        <mxCell id="yyOtxf7_ZLcBcy0vw7WP-95" value="" style="sketch=0;pointerEvents=1;shadow=0;dashed=0;html=1;strokeColor=#6F0000;fillColor=#a20025;labelPosition=center;verticalLabelPosition=bottom;verticalAlign=top;align=center;outlineConnect=0;shape=mxgraph.veeam2.file;fontSize=13;fontColor=#ffffff;" vertex="1" parent="1">
          <mxGeometry x="1037" y="988" width="20" height="23" as="geometry" />
        </mxCell>
        <mxCell id="yyOtxf7_ZLcBcy0vw7WP-96" value="" style="endArrow=none;html=1;fontSize=13;fontColor=#009900;entryX=0.015;entryY=0.465;entryDx=0;entryDy=0;entryPerimeter=0;exitX=1;exitY=0.5;exitDx=0;exitDy=0;endFill=0;startArrow=classic;startFill=1;fillColor=#e51400;strokeColor=#B20000;curved=1;strokeWidth=2;" edge="1" parent="1" source="yyOtxf7_ZLcBcy0vw7WP-72" target="yyOtxf7_ZLcBcy0vw7WP-17">
          <mxGeometry width="50" height="50" relative="1" as="geometry">
            <mxPoint x="752" y="1238" as="sourcePoint" />
            <mxPoint x="802" y="1188" as="targetPoint" />
            <Array as="points">
              <mxPoint x="816" y="1360" />
            </Array>
          </mxGeometry>
        </mxCell>
        <mxCell id="yyOtxf7_ZLcBcy0vw7WP-106" value="指令：放空/恢复" style="edgeLabel;html=1;align=center;verticalAlign=middle;resizable=0;points=[];fontSize=13;fontColor=#009900;" vertex="1" connectable="0" parent="yyOtxf7_ZLcBcy0vw7WP-96">
          <mxGeometry x="-0.1936" y="15" relative="1" as="geometry">
            <mxPoint as="offset" />
          </mxGeometry>
        </mxCell>
        <mxCell id="yyOtxf7_ZLcBcy0vw7WP-100" value="" style="endArrow=classic;html=1;fontSize=13;fontColor=#009900;endSize=6;strokeWidth=2;curved=1;entryX=1;entryY=0.5;entryDx=0;entryDy=0;fillColor=#e51400;strokeColor=#B20000;" edge="1" parent="1" target="yyOtxf7_ZLcBcy0vw7WP-60">
          <mxGeometry width="50" height="50" relative="1" as="geometry">
            <mxPoint x="1032" y="1264" as="sourcePoint" />
            <mxPoint x="806" y="1188" as="targetPoint" />
            <Array as="points">
              <mxPoint x="836" y="1088" />
            </Array>
          </mxGeometry>
        </mxCell>
        <mxCell id="yyOtxf7_ZLcBcy0vw7WP-105" value="指令：放空/恢复" style="edgeLabel;html=1;align=center;verticalAlign=middle;resizable=0;points=[];fontSize=13;fontColor=#009900;" vertex="1" connectable="0" parent="yyOtxf7_ZLcBcy0vw7WP-100">
          <mxGeometry x="0.2924" y="22" relative="1" as="geometry">
            <mxPoint x="1" as="offset" />
          </mxGeometry>
        </mxCell>
        <mxCell id="yyOtxf7_ZLcBcy0vw7WP-101" value="" style="endArrow=classic;html=1;fontSize=13;fontColor=#009900;endSize=6;strokeWidth=2;curved=1;exitX=0.015;exitY=0.465;exitDx=0;exitDy=0;exitPerimeter=0;entryX=1;entryY=0.5;entryDx=0;entryDy=0;fillColor=#e51400;strokeColor=#B20000;" edge="1" parent="1" source="yyOtxf7_ZLcBcy0vw7WP-17" target="yyOtxf7_ZLcBcy0vw7WP-79">
          <mxGeometry width="50" height="50" relative="1" as="geometry">
            <mxPoint x="756" y="1418" as="sourcePoint" />
            <mxPoint x="806" y="1368" as="targetPoint" />
            <Array as="points">
              <mxPoint x="940" y="1768" />
            </Array>
          </mxGeometry>
        </mxCell>
        <mxCell id="yyOtxf7_ZLcBcy0vw7WP-107" value="指令：放空/恢复" style="edgeLabel;html=1;align=center;verticalAlign=middle;resizable=0;points=[];fontSize=13;fontColor=#009900;" vertex="1" connectable="0" parent="yyOtxf7_ZLcBcy0vw7WP-101">
          <mxGeometry x="0.4302" y="-80" relative="1" as="geometry">
            <mxPoint as="offset" />
          </mxGeometry>
        </mxCell>
        <mxCell id="yyOtxf7_ZLcBcy0vw7WP-102" value="&lt;b&gt;&lt;font style=&quot;font-size: 13px&quot; color=&quot;#009900&quot;&gt;大屏&lt;/font&gt;&lt;/b&gt;" style="rounded=1;whiteSpace=wrap;html=1;verticalAlign=middle;align=center;fontSize=12;spacingTop=5;spacingLeft=0;" vertex="1" parent="1">
          <mxGeometry x="1416" y="1372" width="120" height="39.5" as="geometry" />
        </mxCell>
        <mxCell id="yyOtxf7_ZLcBcy0vw7WP-104" value="" style="endArrow=classic;html=1;rounded=1;fontSize=13;fontColor=#009900;endSize=6;strokeWidth=2;exitX=1;exitY=0.5;exitDx=0;exitDy=0;entryX=0;entryY=0.5;entryDx=0;entryDy=0;fillColor=#6a00ff;strokeColor=#3700CC;" edge="1" parent="1" source="yyOtxf7_ZLcBcy0vw7WP-10" target="yyOtxf7_ZLcBcy0vw7WP-102">
          <mxGeometry width="50" height="50" relative="1" as="geometry">
            <mxPoint x="1352" y="1586" as="sourcePoint" />
            <mxPoint x="1402" y="1536" as="targetPoint" />
          </mxGeometry>
        </mxCell>
        <mxCell id="yyOtxf7_ZLcBcy0vw7WP-115" value="受控对象健康状态" style="edgeLabel;html=1;align=center;verticalAlign=middle;resizable=0;points=[];fontSize=13;fontColor=#009900;" vertex="1" connectable="0" parent="yyOtxf7_ZLcBcy0vw7WP-104">
          <mxGeometry x="-0.236" relative="1" as="geometry">
            <mxPoint as="offset" />
          </mxGeometry>
        </mxCell>
      </root>
    </mxGraphModel>
  </diagram>
</mxfile>
